<svg width="21" height="21" viewBox="0 0 21 21" fill="none" xmlns="http://www.w3.org/2000/svg">
<path fill-rule="evenodd" clip-rule="evenodd" d="M13 14.3073H4.66667C3.74619 14.3073 3 13.5611 3 12.6406V4.30729C3 3.38682 3.74619 2.64062 4.66667 2.64062H16.3333C17.2538 2.64062 18 3.38682 18 4.30729V17.6406L13 14.3073ZM16.75 15.305L13.3785 13.0573H4.66667C4.43655 13.0573 4.25 12.8707 4.25 12.6406V4.30729C4.25 4.07717 4.43655 3.89062 4.66667 3.89062H16.3333C16.5635 3.89062 16.75 4.07717 16.75 4.30729V15.305Z" fill="#1D1919"/>
<path fill-rule="evenodd" clip-rule="evenodd" d="M13.832 7.64062H6.33203V6.39062H13.832V7.64062Z" fill="#1D1919"/>
<path fill-rule="evenodd" clip-rule="evenodd" d="M13.832 10.9766H8.83203V9.72656H13.832V10.9766Z" fill="#1D1919"/>
</svg>
