<svg width="21" height="21" viewBox="0 0 21 21" fill="none" xmlns="http://www.w3.org/2000/svg">
<path fill-rule="evenodd" clip-rule="evenodd" d="M12.0955 3.81963C11.6467 3.38229 10.8928 3.70029 10.8928 4.32694V6.83136C9.21248 6.84495 6.42541 7.19418 4.39522 9.17325C2.45298 11.0652 2.20737 13.5228 2.1889 15.7188C2.18569 16.1014 2.46181 16.3296 2.68629 16.4026C2.90857 16.4748 3.24848 16.453 3.47404 16.1691C3.98856 15.5216 6.10982 13.276 10.8928 13.4459V15.9451C10.8928 16.5415 11.5847 16.8709 12.0477 16.4949L15.5837 13.6232L18.5507 11.2138C18.8797 10.9466 18.902 10.4523 18.5985 10.1566L12.0955 3.81963ZM12.1428 5.61108L17.2902 10.6271L14.7957 12.6529L12.1428 14.8074V12.9317C12.1428 12.5476 11.8413 12.2498 11.4819 12.2251C7.33744 11.9407 4.82267 13.291 3.49206 14.3904C3.62275 12.7571 4.04071 11.2635 5.26758 10.0685C7.15805 8.22563 9.92911 8.03579 11.4098 8.08821C11.8186 8.10268 12.1428 7.77345 12.1428 7.37999V5.61108Z" fill="#1D1919"/>
</svg>
