<svg width="24" height="24" viewBox="0 0 24 24" fill="none" xmlns="http://www.w3.org/2000/svg">
<path d="M14 12C14 13.1046 13.1046 14 12 14C10.8954 14 10 13.1046 10 12C10 10.8954 10.8954 10 12 10C13.1046 10 14 10.8954 14 12Z" fill="white"/>
<path fill-rule="evenodd" clip-rule="evenodd" d="M6.03031 4.96969C6.3232 5.26258 6.3232 5.73745 6.03031 6.03035C2.73334 9.32731 2.73334 14.6728 6.03031 17.9697C6.3232 18.2626 6.3232 18.7375 6.03031 19.0304C5.73742 19.3233 5.26254 19.3233 4.96965 19.0304C1.08689 15.1476 1.08689 8.85244 4.96965 4.96969C5.26254 4.67679 5.73742 4.67679 6.03031 4.96969ZM17.9697 4.96969C18.2626 4.67679 18.7375 4.67679 19.0304 4.96969C22.9131 8.85244 22.9131 15.1476 19.0304 19.0304C18.7375 19.3233 18.2626 19.3233 17.9697 19.0304C17.6768 18.7375 17.6768 18.2626 17.9697 17.9697C21.2667 14.6728 21.2667 9.32731 17.9697 6.03035C17.6768 5.73745 17.6768 5.26258 17.9697 4.96969Z" fill="white"/>
<path fill-rule="evenodd" clip-rule="evenodd" d="M8.55623 7.72418C8.84038 8.02557 8.82641 8.50024 8.52502 8.78439C6.6357 10.5657 6.6357 13.4343 8.52502 15.2156C8.82641 15.4997 8.84038 15.9744 8.55623 16.2758C8.27208 16.5772 7.79742 16.5912 7.49603 16.307C4.9787 13.9336 4.9787 10.0663 7.49603 7.69297C7.79742 7.40883 8.27208 7.4228 8.55623 7.72418ZM15.4438 7.72418C15.7279 7.4228 16.2026 7.40883 16.504 7.69297C19.0213 10.0663 19.0213 13.9336 16.504 16.307C16.2026 16.5912 15.7279 16.5772 15.4438 16.2758C15.1596 15.9744 15.1736 15.4997 15.475 15.2156C17.3643 13.4343 17.3643 10.5657 15.475 8.78439C15.1736 8.50024 15.1596 8.02557 15.4438 7.72418Z" fill="white"/>
</svg>
