<svg width="21" height="21" viewBox="0 0 21 21" fill="none" xmlns="http://www.w3.org/2000/svg">
<mask id="mask0_183_696" style="mask-type:alpha" maskUnits="userSpaceOnUse" x="0" y="0" width="21" height="21">
<rect x="0.5" y="0.140625" width="20" height="20" fill="#D9D9D9"/>
</mask>
<g mask="url(#mask0_183_696)">
<path d="M4.11584 7.44073C4.26958 7.44079 4.41825 7.50008 4.526 7.60675L6.8385 9.89581C7.05752 10.1128 7.04751 10.4582 6.81702 10.6634C6.59015 10.8653 6.23376 10.8563 6.01819 10.6429L4.6842 9.32257V13.9778C4.68445 14.9925 5.56542 15.8284 6.66174 15.8284H17.3776L17.4899 15.8392C17.7461 15.8884 17.9459 16.1024 17.9459 16.3685C17.9458 16.6723 17.6853 16.9084 17.3776 16.9085H6.66174C4.95048 16.9085 3.54773 15.5996 3.54749 13.9778V9.32159L2.21252 10.6429C2.10034 10.7539 1.95052 10.8089 1.80237 10.8089C1.66404 10.8088 1.52377 10.7616 1.4137 10.6634C1.18319 10.458 1.17401 10.1128 1.39319 9.89581L3.70569 7.60675C3.81349 7.50003 3.96203 7.44073 4.11584 7.44073Z" fill="#1D1919" stroke="#1D1919" stroke-width="0.2"/>
<path d="M17.4172 12.8418C17.2635 12.8417 17.1148 12.7825 17.0071 12.6758L14.6946 10.3867C14.4756 10.1697 14.4856 9.82436 14.7161 9.61914C14.9429 9.41721 15.2993 9.42622 15.5149 9.63965L16.8489 10.96V6.30469C16.8486 5.29004 15.9677 4.4541 14.8713 4.4541H4.15552L4.04321 4.44336C3.78697 4.39416 3.58716 4.18011 3.58716 3.91406C3.58725 3.61026 3.8478 3.37413 4.15552 3.37402H14.8713C16.5826 3.37402 17.9853 4.68296 17.9856 6.30469V10.9609L19.3206 9.63965C19.4327 9.52863 19.5826 9.47363 19.7307 9.47363C19.869 9.47374 20.0093 9.52098 20.1194 9.61914C20.3499 9.82451 20.3591 10.1697 20.1399 10.3867L17.8274 12.6758C17.7196 12.7825 17.571 12.8418 17.4172 12.8418Z" fill="#1D1919" stroke="#1D1919" stroke-width="0.2"/>
</g>
</svg>
