<svg width="21" height="21" viewBox="0 0 21 21" fill="none" xmlns="http://www.w3.org/2000/svg">
<path fill-rule="evenodd" clip-rule="evenodd" d="M4.09183 9.58437L3.25847 9.58434C3.02835 9.58434 2.8418 9.77089 2.8418 10.001V10.8344V16.5301V17.3634C2.8418 17.5935 3.02834 17.7801 3.25846 17.7801H4.0918H14.7499C15.189 17.7801 15.6473 17.6712 16.0421 17.391C16.4459 17.1044 16.7048 16.6925 16.809 16.2407C16.8952 15.867 16.8741 15.4979 16.7795 15.1504C17.0005 14.9065 17.18 14.612 17.286 14.2629C17.4324 13.7803 17.4058 13.3082 17.2556 12.8702C17.5151 12.5675 17.7106 12.2033 17.7952 11.7697C17.8854 11.3069 17.829 10.8674 17.6845 10.4649C17.9157 10.1435 18.0672 9.77534 18.1281 9.40222C18.2752 8.49963 17.8924 7.46367 16.8134 6.99481L16.5751 6.89124L16.3152 6.89124L10.9044 6.8913L11.0108 4.64833C11.0662 3.47927 10.1334 2.5011 8.96299 2.5011C8.02871 2.5011 7.21261 3.13276 6.97837 4.03719L5.54167 9.58441L4.09183 9.58437ZM15.2749 14.7093C15.2206 14.7325 15.2027 14.8024 15.2395 14.8486C15.5423 15.2283 15.655 15.6171 15.5982 15.925C15.5324 16.2818 15.239 16.5301 14.7499 16.5301H6.55757V10.6475L8.18844 4.3506C8.27986 3.99762 8.59836 3.7511 8.96299 3.7511C9.41975 3.7511 9.78383 4.13285 9.76219 4.58911L9.653 6.89131L9.61441 7.7049C9.60314 7.9425 9.79274 8.14131 10.0306 8.1413L10.8451 8.1413L16.3152 8.14124C16.9699 8.42571 17.0384 9.11647 16.7386 9.62949C16.6146 9.84164 16.4277 10.0234 16.1931 10.1335C16.1404 10.1582 16.1216 10.2268 16.1573 10.2727C16.4443 10.6424 16.5878 10.9972 16.588 11.324C16.588 11.4589 16.5637 11.589 16.515 11.7134C16.3947 12.0206 16.1259 12.2933 15.7089 12.5177C15.6585 12.5448 15.6473 12.6132 15.6859 12.6553C16.0058 13.0033 16.1378 13.34 16.131 13.6419C16.1286 13.7471 16.1094 13.848 16.0754 13.9437C15.9575 14.2753 15.6621 14.5443 15.2749 14.7093ZM5.30757 10.8344V16.5301H4.0918V15.2801V12.0844V10.8344L5.30757 10.8344Z" fill="#1D1919"/>
</svg>
