<svg width="17" height="16" viewBox="0 0 17 16" fill="none" xmlns="http://www.w3.org/2000/svg">
<path d="M8.48051 1.34082C9.40082 1.34089 10.1473 2.08655 10.1475 3.00684C10.1475 3.04878 10.1447 3.09064 10.1416 3.13184C11.6531 3.70364 12.75 5.04301 12.75 6.66699V10.6689L14.1387 12.418C14.4336 12.7893 14.1695 13.3369 13.6954 13.3369H10.2627C10.045 14.1062 9.33906 14.6699 8.50005 14.6699C7.66102 14.6699 6.95514 14.1062 6.73735 13.3369H3.16704C2.97533 13.3369 2.80036 13.2272 2.71684 13.0547C2.63342 12.8819 2.65616 12.6766 2.77544 12.5264L4.25005 10.6689V6.66699C4.25005 5.05728 5.32755 3.7266 6.81841 3.14648C6.81459 3.10056 6.81352 3.05371 6.81352 3.00684C6.8137 2.08651 7.56015 1.34082 8.48051 1.34082ZM7.83403 13.3369C7.98608 13.5391 8.22757 13.6699 8.50005 13.6699C8.77231 13.6699 9.01302 13.5389 9.16508 13.3369H7.83403ZM8.50005 3.83301C6.64813 3.83301 5.25005 5.15593 5.25005 6.66699V10.8428C5.25005 10.9556 5.21171 11.0649 5.14165 11.1533L4.20219 12.3369H12.7979L11.8584 11.1533C11.7884 11.0649 11.75 10.9556 11.75 10.8428V6.66699C11.75 5.15594 10.3519 3.83303 8.50005 3.83301ZM8.48051 2.34082C8.15521 2.34082 7.88491 2.57362 7.82622 2.88184C8.04645 2.8499 8.27162 2.83301 8.50005 2.83301C8.71465 2.83301 8.92638 2.84773 9.13383 2.87598C9.07288 2.57068 8.80372 2.34088 8.48051 2.34082Z" fill="white"/>
</svg>
