<svg width="24" height="24" viewBox="0 0 24 24" fill="none" xmlns="http://www.w3.org/2000/svg">
<path d="M14 12C14 13.1046 13.1046 14 12 14C10.8954 14 10 13.1046 10 12C10 10.8954 10.8954 10 12 10C13.1046 10 14 10.8954 14 12Z" fill="#E2504B"/>
<path fill-rule="evenodd" clip-rule="evenodd" d="M6.03028 4.96967C6.32318 5.26256 6.32318 5.73744 6.03028 6.03033C2.73331 9.3273 2.73331 14.6727 6.03028 17.9697C6.32318 18.2626 6.32318 18.7375 6.03028 19.0304C5.73739 19.3233 5.26252 19.3233 4.96962 19.0304C1.08687 15.1476 1.08687 8.85243 4.96962 4.96967C5.26252 4.67678 5.73739 4.67678 6.03028 4.96967ZM17.9697 4.96967C18.2626 4.67678 18.7374 4.67678 19.0303 4.96967C22.9131 8.85243 22.9131 15.1476 19.0303 19.0304C18.7374 19.3233 18.2626 19.3233 17.9697 19.0304C17.6768 18.7375 17.6768 18.2626 17.9697 17.9697C21.2666 14.6727 21.2666 9.3273 17.9697 6.03033C17.6768 5.73744 17.6768 5.26256 17.9697 4.96967Z" fill="#E2504B"/>
<path fill-rule="evenodd" clip-rule="evenodd" d="M8.55623 7.72415C8.84038 8.02554 8.82641 8.50021 8.52502 8.78435C6.6357 10.5656 6.6357 13.4343 8.52502 15.2156C8.82641 15.4997 8.84038 15.9744 8.55623 16.2758C8.27208 16.5772 7.79742 16.5911 7.49603 16.307C4.9787 13.9336 4.9787 10.0663 7.49603 7.69294C7.79742 7.4088 8.27208 7.42277 8.55623 7.72415ZM15.4438 7.72415C15.7279 7.42277 16.2026 7.4088 16.504 7.69294C19.0213 10.0663 19.0213 13.9336 16.504 16.307C16.2026 16.5911 15.7279 16.5772 15.4438 16.2758C15.1596 15.9744 15.1736 15.4997 15.475 15.2156C17.3643 13.4343 17.3643 10.5656 15.475 8.78435C15.1736 8.50021 15.1596 8.02554 15.4438 7.72415Z" fill="#E2504B"/>
</svg>
